<svg width="32" height="32" viewBox="0 0 32 32" fill="none" xmlns="http://www.w3.org/2000/svg">
  <defs>
    <linearGradient id="logoGradient" x1="0%" y1="0%" x2="100%" y2="100%">
      <stop offset="0%" style="stop-color:#0d6efd;stop-opacity:1" />
      <stop offset="100%" style="stop-color:#6610f2;stop-opacity:1" />
    </linearGradient>
  </defs>
  
  <!-- Background circle -->
  <circle cx="16" cy="16" r="15" fill="url(#logoGradient)" stroke="#ffffff" stroke-width="2"/>
  
  <!-- Computer/laptop icon -->
  <rect x="8" y="12" width="16" height="10" rx="1" fill="#ffffff" stroke="none"/>
  <rect x="9" y="13" width="14" height="8" rx="0.5" fill="url(#logoGradient)"/>
  
  <!-- Screen content - abstract code lines -->
  <rect x="10" y="14" width="6" height="1" fill="#ffffff" opacity="0.8"/>
  <rect x="10" y="16" width="8" height="1" fill="#ffffff" opacity="0.8"/>
  <rect x="10" y="18" width="4" height="1" fill="#ffffff" opacity="0.8"/>
  
  <!-- Keyboard base -->
  <rect x="12" y="22" width="8" height="2" rx="1" fill="#ffffff"/>
  
  <!-- Connection/network dots -->
  <circle cx="6" cy="8" r="1.5" fill="#ffffff"/>
  <circle cx="26" cy="8" r="1.5" fill="#ffffff"/>
  <circle cx="6" cy="24" r="1.5" fill="#ffffff"/>
  <circle cx="26" cy="24" r="1.5" fill="#ffffff"/>
  
  <!-- Connection lines -->
  <line x1="7" y1="9" x2="12" y2="14" stroke="#ffffff" stroke-width="1" opacity="0.6"/>
  <line x1="25" y1="9" x2="20" y2="14" stroke="#ffffff" stroke-width="1" opacity="0.6"/>
  <line x1="7" y1="23" x2="12" y2="20" stroke="#ffffff" stroke-width="1" opacity="0.6"/>
  <line x1="25" y1="23" x2="20" y2="20" stroke="#ffffff" stroke-width="1" opacity="0.6"/>
</svg>
